<svg width="36" height="36" viewBox="0 0 36 36" fill="none" xmlns="http://www.w3.org/2000/svg">
<path d="M31.3051 25.875L27.2401 18.855C28.0719 17.3273 28.5053 15.6145 28.5001 13.875C28.5001 11.0902 27.3939 8.41951 25.4247 6.45038C23.4556 4.48125 20.7849 3.375 18.0001 3.375C15.2153 3.375 12.5446 4.48125 10.5755 6.45038C8.60636 8.41951 7.50011 11.0902 7.50011 13.875C7.49494 15.6145 7.92829 17.3273 8.76011 18.855L4.69511 25.875C4.5632 26.1035 4.49388 26.3627 4.49414 26.6265C4.4944 26.8903 4.56423 27.1494 4.69659 27.3776C4.82895 27.6058 5.01916 27.7951 5.24802 27.9263C5.47688 28.0575 5.7363 28.126 6.00011 28.125H10.3051L12.4951 31.815C12.5689 31.9373 12.6599 32.0484 12.7651 32.145C13.0432 32.413 13.4139 32.5635 13.8001 32.565H14.0101C14.2366 32.534 14.4529 32.4517 14.6427 32.3243C14.8325 32.1969 14.9907 32.0278 15.1051 31.83L18.0001 26.85L20.8951 31.875C21.0113 32.07 21.1701 32.2362 21.3598 32.3609C21.5495 32.4856 21.765 32.5657 21.9901 32.595H22.2001C22.5915 32.5974 22.9683 32.4466 23.2501 32.175C23.351 32.0839 23.437 31.9776 23.5051 31.86L25.6951 28.17H30.0001C30.2644 28.1711 30.5243 28.1022 30.7535 27.9705C30.9827 27.8388 31.173 27.6489 31.3051 27.42C31.4453 27.1867 31.5193 26.9197 31.5193 26.6475C31.5193 26.3753 31.4453 26.1083 31.3051 25.875ZM13.7851 28.17L12.4501 25.935C12.3187 25.7133 12.1323 25.5291 11.9089 25.4004C11.6856 25.2716 11.4329 25.2026 11.1751 25.2H8.58011L10.7251 21.48C12.2022 22.9033 14.0638 23.8628 16.0801 24.24L13.7851 28.17ZM18.0001 21.375C16.5168 21.375 15.0667 20.9351 13.8333 20.111C12.6 19.2869 11.6387 18.1156 11.071 16.7451C10.5034 15.3747 10.3548 13.8667 10.6442 12.4118C10.9336 10.957 11.6479 9.62059 12.6968 8.5717C13.7457 7.52281 15.0821 6.8085 16.5369 6.51911C17.9918 6.22972 19.4998 6.37825 20.8702 6.9459C22.2407 7.51356 23.412 8.47485 24.2361 9.70822C25.0602 10.9416 25.5001 12.3916 25.5001 13.875C25.5001 15.8641 24.7099 17.7718 23.3034 19.1783C21.8969 20.5848 19.9892 21.375 18.0001 21.375ZM24.8251 25.2C24.5673 25.2026 24.3146 25.2716 24.0913 25.4004C23.8679 25.5291 23.6816 25.7133 23.5501 25.935L22.2151 28.17L19.9351 24.195C21.9443 23.8101 23.7991 22.8515 25.2751 21.435L27.4201 25.155L24.8251 25.2Z" fill="#FF6361"/>
<path d="M16.5273 11.29V10H18.9373V17.29H17.4973V11.29H16.5273Z" fill="#FF6361"/>
</svg>
