<svg width="37" height="36" viewBox="0 0 37 36" fill="none" xmlns="http://www.w3.org/2000/svg">
<path d="M31.9721 25.875L27.9071 18.855C28.7389 17.3273 29.1723 15.6145 29.1671 13.875C29.1671 11.0902 28.0609 8.41951 26.0917 6.45038C24.1226 4.48125 21.4519 3.375 18.6671 3.375C15.8823 3.375 13.2116 4.48125 11.2425 6.45038C9.27335 8.41951 8.1671 11.0902 8.1671 13.875C8.16194 15.6145 8.59528 17.3273 9.4271 18.855L5.3621 25.875C5.23019 26.1035 5.16087 26.3627 5.16113 26.6265C5.16139 26.8903 5.23123 27.1494 5.36359 27.3776C5.49595 27.6058 5.68615 27.7951 5.91501 27.9263C6.14387 28.0575 6.40329 28.126 6.6671 28.125H10.9721L13.1621 31.815C13.2359 31.9373 13.3268 32.0484 13.4321 32.145C13.7102 32.413 14.0809 32.5635 14.4671 32.565H14.6771C14.9036 32.534 15.1199 32.4517 15.3097 32.3243C15.4995 32.1969 15.6576 32.0278 15.7721 31.83L18.6671 26.85L21.5621 31.875C21.6782 32.07 21.8371 32.2362 22.0268 32.3609C22.2165 32.4856 22.432 32.5657 22.6571 32.595H22.8671C23.2585 32.5974 23.6353 32.4466 23.9171 32.175C24.018 32.0839 24.104 31.9776 24.1721 31.86L26.3621 28.17H30.6671C30.9314 28.1711 31.1913 28.1022 31.4205 27.9705C31.6496 27.8388 31.8399 27.6489 31.9721 27.42C32.1123 27.1867 32.1863 26.9197 32.1863 26.6475C32.1863 26.3753 32.1123 26.1083 31.9721 25.875ZM14.4521 28.17L13.1171 25.935C12.9856 25.7133 12.7993 25.5291 12.5759 25.4004C12.3526 25.2716 12.0999 25.2026 11.8421 25.2H9.2471L11.3921 21.48C12.8692 22.9033 14.7308 23.8628 16.7471 24.24L14.4521 28.17ZM18.6671 21.375C17.1837 21.375 15.7337 20.9351 14.5003 20.111C13.267 19.2869 12.3057 18.1156 11.738 16.7451C11.1703 15.3747 11.0218 13.8667 11.3112 12.4118C11.6006 10.957 12.3149 9.62059 13.3638 8.5717C14.4127 7.52281 15.7491 6.8085 17.2039 6.51911C18.6588 6.22972 20.1668 6.37825 21.5372 6.9459C22.9077 7.51356 24.079 8.47485 24.9031 9.70822C25.7272 10.9416 26.1671 12.3916 26.1671 13.875C26.1671 15.8641 25.3769 17.7718 23.9704 19.1783C22.5639 20.5848 20.6562 21.375 18.6671 21.375ZM25.4921 25.2C25.2343 25.2026 24.9816 25.2716 24.7583 25.4004C24.5349 25.5291 24.3486 25.7133 24.2171 25.935L22.8821 28.17L20.6021 24.195C22.6113 23.8101 24.4661 22.8515 25.9421 21.435L28.0871 25.155L25.4921 25.2Z" fill="#FF6361"/>
<path d="M16.7023 15.5905C17.3488 15.0825 17.864 14.6603 18.2478 14.3238C18.6316 13.981 18.9515 13.6254 19.2074 13.2571C19.4633 12.8889 19.5912 12.527 19.5912 12.1714C19.5912 11.8476 19.5104 11.5937 19.3488 11.4095C19.1872 11.2254 18.938 11.1333 18.6013 11.1333C18.2646 11.1333 18.0054 11.2413 17.8236 11.4571C17.6417 11.6667 17.5475 11.9556 17.5407 12.3238H16.167C16.1939 11.5619 16.433 10.9841 16.8842 10.5905C17.3421 10.1968 17.9212 10 18.6215 10C19.3892 10 19.9784 10.1937 20.3892 10.581C20.8 10.9619 21.0054 11.4667 21.0054 12.0952C21.0054 12.5905 20.864 13.0635 20.5811 13.5143C20.2983 13.9651 19.9751 14.3587 19.6114 14.6952C19.2478 15.0254 18.7731 15.4254 18.1872 15.8952H21.167V17H16.1771V16.0095L16.7023 15.5905Z" fill="#FF6361"/>
</svg>
